<svg width="144" height="144" viewBox="0 0 144 144" fill="none" xmlns="http://www.w3.org/2000/svg">
  <rect width="144" height="144" rx="32" fill="#10B981"/>
  <path d="M72 24C48.7 24 30 42.7 30 66C30 89.3 48.7 108 72 108C95.3 108 114 89.3 114 66C114 42.7 95.3 24 72 24ZM72 100C53.32 100 38 84.68 38 66C38 47.32 53.32 32 72 32C90.68 32 106 47.32 106 66C106 84.68 90.68 100 72 100Z" fill="white"/>
  <path d="M56 60C56 53.38 61.38 48 68 48H76C82.62 48 88 53.38 88 60V76C88 82.62 82.62 88 76 88H68C61.38 88 56 82.62 56 76V60Z" fill="white"/>
  <circle cx="64" cy="64" r="4" fill="#10B981"/>
  <circle cx="80" cy="64" r="4" fill="#10B981"/>
  <path d="M60 80C60 77.8 61.8 76 64 76H80C82.2 76 84 77.8 84 80C84 82.2 82.2 84 80 84H64C61.8 84 60 82.2 60 80Z" fill="#10B981"/>
  <path d="M72 40C68.69 40 66 42.69 66 46V50C66 53.31 68.69 56 72 56C75.31 56 78 53.31 78 50V46C78 42.69 75.31 40 72 40Z" fill="#10B981"/>
</svg>