<svg width="72" height="72" viewBox="0 0 72 72" fill="none" xmlns="http://www.w3.org/2000/svg">
  <rect width="72" height="72" rx="16" fill="#3B82F6"/>
  <path d="M36 12C23.85 12 14 21.85 14 34C14 46.15 23.85 56 36 56C48.15 56 58 46.15 58 34C58 21.85 48.15 12 36 12ZM36 50C27.16 50 20 42.84 20 34C20 25.16 27.16 18 36 18C44.84 18 52 25.16 52 34C52 42.84 44.84 50 36 50Z" fill="white"/>
  <path d="M28 30C28 26.69 30.69 24 34 24H38C41.31 24 44 26.69 44 30V38C44 41.31 41.31 44 38 44H34C30.69 44 28 41.31 28 38V30Z" fill="white"/>
  <circle cx="32" cy="32" r="2" fill="#3B82F6"/>
  <circle cx="40" cy="32" r="2" fill="#3B82F6"/>
  <path d="M30 40C30 38.9 30.9 38 32 38H40C41.1 38 42 38.9 42 40C42 41.1 41.1 42 40 42H32C30.9 42 30 41.1 30 40Z" fill="#3B82F6"/>
</svg>